Mus82_LZ_Header:
	smpsHeaderStartSong 1, 1
	smpsHeaderVoice     Mus82_LZ_Voices
	smpsHeaderChan      $06, $03
	smpsHeaderTempo     $02, $06

	smpsHeaderDAC       Mus82_LZ_DAC
	smpsHeaderFM        Mus82_LZ_FM1,	$F4, $0C
	smpsHeaderFM        Mus82_LZ_FM2,	$E8, $0D
	smpsHeaderFM        Mus82_LZ_FM3,	$F4, $18
	smpsHeaderFM        Mus82_LZ_FM4,	$F4, $18
	smpsHeaderFM        Mus82_LZ_FM5,	$00, $12
	smpsHeaderPSG       Mus82_LZ_PSG1,	$D0, $02, $00, fTone_09
	smpsHeaderPSG       Mus82_LZ_PSG2,	$D0, $02, $00, fTone_09
	smpsHeaderPSG       Mus82_LZ_PSG3,	$00, $02, $00, fTone_04

; FM1 Data
Mus82_LZ_FM1:
	smpsSetvoice        $00
	dc.b	nRst, $30

Mus82_LZ_Jump03:
	dc.b	nRst, $06, nE5, $06, nG5, $06, nE5, $06, nG5, $09, nA5, $09
	dc.b	nB5, $06, smpsNoAttack, $06, nC6, $06, nB5, $06, nA5, $06, nG5, $09
	dc.b	nA5, $06, nG5, $03, nE5, $06, nRst, $06, nE5, $06, nG5, $06
	dc.b	nE5, $06, nG5, $09, nA5, $09, nB5, $06, smpsNoAttack, $06, nC6, $06
	dc.b	nB5, $06, nA5, $06, nG5, $09, nA5, $06, nG5, $03, nE5, $06
	dc.b	nRst, $06, nA5, $06, nC6, $06, nA5, $06, nC6, $09, nD6, $09
	dc.b	nE6, $06, smpsNoAttack, $06, nF6, $06, nE6, $06, nD6, $06, nC6, $09
	dc.b	nD6, $06, nC6, $03, nA5, $06, nRst, $06, nA5, $06, nC6, $06
	dc.b	nA5, $06, nC6, $09, nD6, $09, nE6, $06, smpsNoAttack, $06, nF6, $06
	dc.b	nE6, $06, nD6, $06, nC6, $0C, nA5, $0C, nD6, $04, nC6, nD6
	dc.b	nC6, $24, nRst, $30, nC6, $0C, nC6, $06, nC6, $06, nD6, $09
	dc.b	nC6, $09, nF6, $06, smpsNoAttack, $06, nE6, $06, nD6, $06, nC6, $06
	dc.b	nD6, $09, nE6, $03, smpsNoAttack, $0C, nC6, $0C, nC6, $06, nC6, $06
	dc.b	nD6, $09, nC6, $09, nE6, $06, smpsNoAttack, $30, nC6, $0C, nC6, $06
	dc.b	nC6, $06, nD6, $09, nC6, $09, nF6, $06, smpsNoAttack, $06, nE6, $06
	dc.b	nD6, $06, nC6, $06, nD6, $09, nE6, $03, smpsNoAttack, $0C, nF6, $06
	dc.b	nE6, $06, nD6, $06, nC6, $06, nBb5, $06, nA5, $06, nG5, $06
	dc.b	nF5, $06, nE5, $06, nC6, $12, nRst, $18
	smpsJump            Mus82_LZ_Jump03

; FM2 Data
Mus82_LZ_FM2:
	smpsSetvoice        $01
	dc.b	nRst, $12, nD4, $0C, nG4, $03, nRst, nG4, nRst, $09

Mus82_LZ_Jump02:
	dc.b	nC4, $0F, nRst, $03, nE4, nRst, nG4, $09, nRst, $03, nA4, $09
	dc.b	nRst, $03, nB4, $0F, nRst, $03, nA4, nRst, nG4, $09, nRst, $03
	dc.b	nE4, $09, nRst, $03, nC4, $0F, nRst, $03, nE4, nRst, nG4, $09
	dc.b	nRst, $03, nA4, $09, nRst, $03, nB4, $0F, nRst, $03, nA4, nRst
	dc.b	nG4, $09, nRst, $03, nE4, $09, nRst, $03, nF4, $0F, nRst, $03
	dc.b	nA4, nRst, nC5, $09, nRst, $03, nD5, $09, nRst, $03, nE5, $0F
	dc.b	nRst, $03, nD5, nRst, nC5, $09, nRst, $03, nA4, $09, nRst, $03
	dc.b	nF4, $0F, nRst, $03, nA4, nRst, nC5, $09, nRst, $03, nD5, $09
	dc.b	nRst, $03, nE5, $0F, nRst, $03, nD5, nRst, nC5, $09, nRst, $03
	dc.b	nA4, $09, nRst, $03, nC4, $0F, nRst, $03, nE4, nRst, nG4, $09
	dc.b	nRst, $03, nE4, $09, nRst, $03, nC5, $03, nRst, nC5, $06, nG4
	dc.b	$06, nC5, $06, nFs4, $18, nF4, $06, nRst, nRst, nF4, nE4, $06
	dc.b	nRst, nRst, nE4, nD4, $06, nRst, nRst, nD4, nC4, $06, nD4, $06
	dc.b	nE4, $0C, nF4, $06, nRst, nRst, nF4, nE4, $06, nRst, nRst, nE4
	dc.b	nA4, $06, nRst, nRst, nA4, $06, nA4, $18, nF4, $06, nRst, nRst
	dc.b	nF4, nE4, $06, nRst, nRst, nE4, nD4, $06, nRst, nRst, nD4, nC4
	dc.b	$06, nD4, $06, nE4, $0C, nF4, $06, nRst, nRst, nF4, nBb4, $06
	dc.b	nRst, nRst, nBb4, nC5, $06, nRst, nRst, nC5, nG4, $0C, nG4
	smpsJump            Mus82_LZ_Jump02

; FM3 Data
Mus82_LZ_FM3:
	smpsSetvoice        $03
	smpsPan             panLeft, $00
	smpsNoteFill        $08
	dc.b	nA6, $06, nF6, $06, nD6, $06
	smpsNoteFill        $00
	dc.b	nG6, $0A, nRst, $02, nG6, $03, nRst, nG6, $03, nRst, $09

Mus82_LZ_Jump07:
	dc.b	nRst, $30, nRst, $30, nRst, $30, nRst, $30, nRst, $30, nRst, $30, nRst
	dc.b	$30, nRst, $30, nRst, $30, nRst, $30, $E3, $02
        dc.b	nE6, $30, smpsNoAttack, $18, nF6, $0C, nG6, $0C, nC6
	dc.b	$30, nRst, $30, nE6, $30, smpsNoAttack, $18, nF6, $0C, nG6, $0C, nC6, $18, nD6, $18, nE6, $18, nG6, $18
	smpsJump            Mus82_LZ_Jump07

; FM4 Data
Mus82_LZ_FM4:
	smpsSetvoice        $03
	smpsPan             panRight, $00
	smpsDetune          $02
	smpsNoteFill        $08
	dc.b	nA6, $06, nF6, $06, nD6, $06
	smpsNoteFill        $00
	dc.b	nG6, $0A, nRst, $02, nG6, $03, nRst, nG6, $03, nRst, $09

Mus82_LZ_Jump08:
	dc.b	nRst, $30, nRst, $30, nRst, $30, nRst, $30, nRst, $30, nRst, $30, nRst
	dc.b	$30, nRst, $30, nRst, $30, nRst, $30, $E3, $03
        dc.b	nE6, $30, smpsNoAttack, $18, nF6, $0C, nG6, $0C, nC6
	dc.b	$30, nRst, $30, nE6, $30, smpsNoAttack, $18, nF6, $0C, nG6, $0C, nC6, $18, nD6, $18, nE6, $18, nG6, $18
	smpsJump            Mus82_LZ_Jump08

; FM5 Data
Mus82_LZ_FM5:
	smpsSetvoice        $02
	smpsNoteFill        $08
	dc.b	nC5, $06, nA4, $06, nF4, $06
	smpsNoteFill        $00
	dc.b	nC5, $09, nRst, $03, nC5, nRst, nC5, nRst, $09
	smpsAlterVol        $03

Mus82_LZ_Jump01:
	smpsSetvoice        $04
	dc.b	nRst, $30, nRst, $1E, nG4, $03, nA4, nC5, nRst, nA4, nRst, nRst
	dc.b	$30, nRst, $1E, nE5, $03, nC5, nA4, nRst, nC5, nRst, nRst, $30
	dc.b	nRst, $1E, nC5, $03, nD5, nF5, nRst, nD5, nRst, nRst, $30, nRst
	dc.b	$1E, nA5, $03, nF5, nC5, nRst, nF5, nRst, nRst, $30, nRst, $06
	dc.b	nG4, nRst, nA4, nRst, nBb4, $03, nRst, nBb4, nRst, nCs5, nRst
	smpsNoteFill        $0A
	dc.b	nE5, $12, $06, nD5, $12, $06, nC5, $12, $06, nB4, nC5
	smpsNoteFill        $14
	dc.b	nD5, $0C
	smpsNoteFill        $0A
	dc.b	nE5, $12, $06, nD5, $12, $06, nRst, $06, nA4, nRst, nB4, nRst
	dc.b	nCs5, nCs5, nE5, nE5, $12, $06, nD5, $12, $06, nC5, $12, $06
	dc.b	nB4, nC5
	smpsNoteFill        $14
	dc.b	nD5, $0C
	smpsNoteFill        $0A
	dc.b	nE5, $12, $06, nD5, $12, $06
	smpsNoteFill        $05
	dc.b	nRst, $06, nG4, $03, nA4, $03, nC5, $03, nC5, $03, nA4, $03
	dc.b	nG4, $03, nC5, $03, nC5, $03, nA4, $03, nG4, $03, nC5, $03
	dc.b	nC5, $03, nA4, $03, nG4, $03
	smpsNoteFill        $00
	smpsJump            Mus82_LZ_Jump01

; PSG1 Data
Mus82_LZ_PSG1:
	dc.b	nA6, $03, nA6, $03, nF6, $03, nF6, $03, nD6, $03, nD6, $21

Mus82_LZ_Jump06:
	dc.b	nRst, $06, nE6, $0C, nE6, $0C, nE6, $0C, nE6, $06, nRst, $06
	dc.b	nE6, $0C, nE6, $0C, nE6, $03, nE6, $09, nE6, $06, nRst, $06
	dc.b	nE6, $0C, nE6, $0C, nE6, $0C, nE6, $06, nRst, $06, nE6, $0C
	dc.b	nE6, $0C, nE6, $03, nE6, $09, nE6, $06, nRst, $06, nA6, $0C
	dc.b	nA6, $0C, nA6, $0C, nA6, $06, nRst, $06, nA6, $0C, nA6, $0C
	dc.b	nA6, $03, nA6, $09, nA6, $06, nRst, $06, nA6, $0C, nA6, $0C
	dc.b	nA6, $0C, nA6, $06, nRst, $06, nA6, $0C, nA6, $0C, nA6, $03
	dc.b	nA6, $09, nA6, $06, nRst, $06, nE6, $0C, nE6, $0C, nE6, $0C
	dc.b	nE6, $06, nRst, $06, nE6, $03, nE6, $09, nE6, $0C, nBb6, $0C
	dc.b	nBb6, $06, nRst, $06, nA6, $0C, nA6, $0C, nG6, $03, nG6, $09
	dc.b	nG6, $06, nRst, $06, nF6, $0C, nF6, $0C, nE6, $03, nE6, $09
	dc.b	nE6, $06, nRst, $06, nA6, $0C, nA6, $0C, nG6, $03, nG6, $09
	dc.b	nG6, $06, nRst, $06, nB6, $0C, nB6, $0C, nB6, $03, nB6, $09
	dc.b	nB6, $06, nRst, $06, nA6, $0C, nA6, $0C, nG6, $03, nG6, $09
	dc.b	nG6, $06, nRst, $06, nF6, $0C, nF6, $0C, nE6, $03, nE6, $09
	dc.b	nE6, $06, nRst, $06, nA6, $0C, nA6, $0C, nBb6, $03, nBb6, $09
	dc.b	nBb6, $06, nRst, $06, nE6, $0C, nE6, $06, nD6, $06, nF6, $06
	dc.b	nA6, $0C
	smpsJump            Mus82_LZ_Jump06

; PSG2 Data
Mus82_LZ_PSG2:
	dc.b	nC7, $03, nC7, $03, nA6, $03, nA6, $03, nF6, $03, nF6, $21

Mus82_LZ_Jump05:
	dc.b	nRst, $06, nG6, $0C, nG6, $0C, nG6, $0C, nG6, $06, nRst, $06
	dc.b	nG6, $0C, nG6, $0C, nG6, $03, nG6, $09, nG6, $06, nRst, $06
	dc.b	nG6, $0C, nG6, $0C, nG6, $0C, nG6, $06, nRst, $06, nG6, $0C
	dc.b	nG6, $0C, nG6, $03, nG6, $09, nG6, $06, nRst, $06, nC7, $0C
	dc.b	nC7, $0C, nC7, $0C, nC7, $06, nRst, $06, nC7, $0C, nC7, $0C
	dc.b	nC7, $03, nC7, $09, nC7, $06, nRst, $06, nC7, $0C, nC7, $0C
	dc.b	nC7, $0C, nC7, $06, nRst, $06, nC7, $0C, nC7, $0C, nC7, $03
	dc.b	nC7, $09, nC7, $06, nRst, $06, nG6, $0C, nG6, $0C, nG6, $0C
	dc.b	nG6, $06, nRst, $06, nG6, $03, nG6, $09, nG6, $0C, nCs7, $0C
	dc.b	nCs7, $06, nRst, $06, nC7, $0C, nC7, $0C, nB6, $03, nB6, $09
	dc.b	nB6, $06, nRst, $06, nA6, $0C, nA6, $0C, nG6, $03, nG6, $09
	dc.b	nG6, $06, nRst, $06, nC7, $0C, nC7, $0C, nB6, $03, nB6, $09
	dc.b	nB6, $06, nRst, $06, nD7, $0C, nD7, $0C, nCs7, $03, nCs7, $09
	dc.b	nCs7, $06, nRst, $06, nC7, $0C, nC7, $0C, nB6, $03, nB6, $09
	dc.b	nB6, $06, nRst, $06, nA6, $0C, nA6, $0C, nG6, $03, nG6, $09
	dc.b	nG6, $06, nRst, $06, nC7, $0C, nC7, $0C, nD7, $03, nD7, $09
	dc.b	nD7, $06, nRst, $06, nG6, $0C, nG6, $06, nF6, $06, nA6, $06
	dc.b	nC7, $0C
	smpsJump            Mus82_LZ_Jump05

; PSG3 Data
Mus82_LZ_PSG3:
	smpsPSGform         $E7
	dc.b	nRst, $12
	smpsNoteFill        $0E
	dc.b	nMaxPSG, $0C
	smpsNoteFill        $03
	dc.b	$06, $0C

Mus82_LZ_Jump04:
	smpsCall            Mus82_LZ_Call00
	smpsCall            Mus82_LZ_Call01
	smpsCall            Mus82_LZ_Call00
	smpsNoteFill        $0E
	dc.b	nMaxPSG, $0C
	smpsNoteFill        $03
	dc.b	$06, $06, $03, $03, $06, $03, $03, $06
	smpsCall            Mus82_LZ_Call00
	smpsCall            Mus82_LZ_Call01
	smpsCall            Mus82_LZ_Call00
	smpsCall            Mus82_LZ_Call00
	smpsCall            Mus82_LZ_Call00
	smpsCall            Mus82_LZ_Call00
	smpsCall            Mus82_LZ_Call02
	dc.b	$03, $03
	smpsNoteFill        $0E
	dc.b	$06
	smpsNoteFill        $03
	dc.b	$03, $03
	smpsNoteFill        $0E
	dc.b	$06
	smpsCall            Mus82_LZ_Call02
	smpsPSGAlterVol     $FF
	smpsNoteFill        $0E
	dc.b	$0C, $0C
	smpsPSGAlterVol     $01
	smpsJump            Mus82_LZ_Jump04

Mus82_LZ_Call00:
	smpsNoteFill        $0E
	dc.b	nMaxPSG, $0C
	smpsNoteFill        $03
	dc.b	$06, $06, $06, $06, $06, $06
	smpsReturn

Mus82_LZ_Call01:
	smpsNoteFill        $0E
	dc.b	nMaxPSG, $0C
	smpsNoteFill        $03
	dc.b	$06, $06, $06, $06, $06, $03, $03
	smpsReturn

Mus82_LZ_Call02:
	dc.b	nRst, $03
	smpsNoteFill        $03
	dc.b	nMaxPSG, $06, $06, $03
	smpsNoteFill        $0E
	dc.b	$06
	smpsNoteFill        $03
	dc.b	$06, $06, $06, $06, $06, $06, $06, $06
	smpsNoteFill        $03
	dc.b	$06, $06, $06
	smpsNoteFill        $0E
	dc.b	$06
	smpsNoteFill        $03
	dc.b	$06, $06, $06, $06, $06, $06, $06, $06, $06, $06, $06, $06
	smpsReturn

; DAC Data
Mus82_LZ_DAC:
	dc.b	dSnare, $06, dSnare, $06, dSnare, $06, dKick, $0C, dSnare, $06, dSnare, $0C

Mus82_LZ_Jump00:
	dc.b	dKick, $12, dKick, $06, dKick, $0C, dSnare, $0C, dKick, $12, dKick, $06
	dc.b	dKick, $0C, dSnare, $0C, dKick, $12, dKick, $06, dKick, $0C, dSnare, $0C
	dc.b	dKick, $12, dKick, $06, dKick, $0C, dSnare, $0C, dKick, $12, dKick, $06
	dc.b	dKick, $0C, dSnare, $0C, dKick, $12, dKick, $06, dKick, $0C, dSnare, $0C
	dc.b	dKick, $12, dKick, $06, dKick, $0C, dSnare, $0C, dKick, $12, dKick, $06
	dc.b	dKick, $0C, dSnare, $0C, dKick, $12, dKick, $06, dKick, $0C, dSnare, $0C
	dc.b	dKick, $12, dKick, $06, dKick, $06, dSnare, $06, dSnare, $06, dSnare, $06
	dc.b	dKick, $0C, dSnare, $06, dKick, $06, dKick, $0C, dSnare, $0C, dKick, $0C
	dc.b	dSnare, $06, dKick, $06, dKick, $0C, dSnare, $0C, dKick, $0C, dSnare, $06
	dc.b	dKick, $06, dKick, $0C, dSnare, $0C, dKick, $0C, dSnare, $06, dKick, $06
	dc.b	dKick, $06, dSnare, $06, dSnare, $0C, dKick, $0C, dSnare, $06, dKick, $06
	dc.b	dKick, $0C, dSnare, $0C, dKick, $0C, dSnare, $06, dKick, $06, dKick, $0C
	dc.b	dSnare, $0C, dKick, $0C, dSnare, $06, dKick, $06, dKick, $0C, dSnare, $0C
	dc.b	dKick, $0C, dSnare, $06, dKick, $06, dKick, $06, dSnare, $06, dSnare, $06
	dc.b	dSnare, $06
	smpsJump            Mus82_LZ_Jump00

Mus82_LZ_Voices:
;	Voice $00
;	$31
;	$34, $35, $30, $31, 	$DF, $DF, $9F, $9F, 	$0C, $07, $0C, $09
;	$07, $07, $07, $08, 	$2F, $1F, $1F, $2F, 	$17, $32, $14, $80
	smpsVcAlgorithm     $01
	smpsVcFeedback      $06
	smpsVcUnusedBits    $00
	smpsVcDetune        $03, $03, $03, $03
	smpsVcCoarseFreq    $01, $00, $05, $04
	smpsVcRateScale     $02, $02, $03, $03
	smpsVcAttackRate    $1F, $1F, $1F, $1F
	smpsVcAmpMod        $00, $00, $00, $00
	smpsVcDecayRate1    $09, $0C, $07, $0C
	smpsVcDecayRate2    $08, $07, $07, $07
	smpsVcDecayLevel    $02, $01, $01, $02
	smpsVcReleaseRate   $0F, $0F, $0F, $0F
	smpsVcTotalLevel    $80, $14, $32, $17

;	Voice $01
;	$18
;	$37, $30, $30, $31, 	$9E, $DC, $1C, $9C, 	$0D, $06, $04, $01
;	$08, $0A, $03, $05, 	$BF, $BF, $3F, $2F, 	$2C, $22, $14, $80
	smpsVcAlgorithm     $00
	smpsVcFeedback      $03
	smpsVcUnusedBits    $00
	smpsVcDetune        $03, $03, $03, $03
	smpsVcCoarseFreq    $01, $00, $00, $07
	smpsVcRateScale     $02, $00, $03, $02
	smpsVcAttackRate    $1C, $1C, $1C, $1E
	smpsVcAmpMod        $00, $00, $00, $00
	smpsVcDecayRate1    $01, $04, $06, $0D
	smpsVcDecayRate2    $05, $03, $0A, $08
	smpsVcDecayLevel    $02, $03, $0B, $0B
	smpsVcReleaseRate   $0F, $0F, $0F, $0F
	smpsVcTotalLevel    $80, $14, $22, $2C

;	Voice $02
;	$3A
;	$01, $07, $01, $01, 	$8E, $8E, $8D, $53, 	$0E, $0E, $0E, $03
;	$00, $00, $00, $00, 	$1F, $FF, $1F, $0F, 	$18, $28, $27, $80
	smpsVcAlgorithm     $02
	smpsVcFeedback      $07
	smpsVcUnusedBits    $00
	smpsVcDetune        $00, $00, $00, $00
	smpsVcCoarseFreq    $01, $01, $07, $01
	smpsVcRateScale     $01, $02, $02, $02
	smpsVcAttackRate    $13, $0D, $0E, $0E
	smpsVcAmpMod        $00, $00, $00, $00
	smpsVcDecayRate1    $03, $0E, $0E, $0E
	smpsVcDecayRate2    $00, $00, $00, $00
	smpsVcDecayLevel    $00, $01, $0F, $01
	smpsVcReleaseRate   $0F, $0F, $0F, $0F
	smpsVcTotalLevel    $80, $27, $28, $18

;	Voice $03
;	$3D
;	$01, $02, $02, $02, 	$14, $0E, $8C, $0E, 	$08, $05, $02, $05
;	$00, $00, $00, $00, 	$1F, $1F, $1F, $1F, 	$1A, $92, $A7, $80
	smpsVcAlgorithm     $05
	smpsVcFeedback      $07
	smpsVcUnusedBits    $00
	smpsVcDetune        $00, $00, $00, $00
	smpsVcCoarseFreq    $02, $02, $02, $01
	smpsVcRateScale     $00, $02, $00, $00
	smpsVcAttackRate    $0E, $0C, $0E, $14
	smpsVcAmpMod        $00, $00, $00, $00
	smpsVcDecayRate1    $05, $02, $05, $08
	smpsVcDecayRate2    $00, $00, $00, $00
	smpsVcDecayLevel    $01, $01, $01, $01
	smpsVcReleaseRate   $0F, $0F, $0F, $0F
	smpsVcTotalLevel    $80, $A7, $92, $1A

;	Voice $04
;	$3C
;	$31, $52, $50, $30, 	$52, $53, $52, $53, 	$08, $00, $08, $00
;	$04, $00, $04, $00, 	$1F, $0F, $1F, $0F, 	$1A, $80, $16, $80
	smpsVcAlgorithm     $04
	smpsVcFeedback      $07
	smpsVcUnusedBits    $00
	smpsVcDetune        $03, $05, $05, $03
	smpsVcCoarseFreq    $00, $00, $02, $01
	smpsVcRateScale     $01, $01, $01, $01
	smpsVcAttackRate    $13, $12, $13, $12
	smpsVcAmpMod        $00, $00, $00, $00
	smpsVcDecayRate1    $00, $08, $00, $08
	smpsVcDecayRate2    $00, $04, $00, $04
	smpsVcDecayLevel    $00, $01, $00, $01
	smpsVcReleaseRate   $0F, $0F, $0F, $0F
	smpsVcTotalLevel    $80, $16, $80, $1A

