Mus8B_Ending_Header:
	smpsHeaderStartSong 1
	smpsHeaderVoice     Mus8B_Ending_Voices
	smpsHeaderChan      $06, $03
	smpsHeaderTempo     $01, $04

	smpsHeaderDAC       Mus8B_Ending_DAC
	smpsHeaderFM        Mus8B_Ending_FM1,	$F4, $0E
	smpsHeaderFM        Mus8B_Ending_FM2,	$F4, $09
	smpsHeaderFM        Mus8B_Ending_FM3,	$F4, $0D
	smpsHeaderFM        Mus8B_Ending_FM4,	$F4, $0D
	smpsHeaderFM        Mus8B_Ending_FM5,	$F4, $17
	smpsHeaderPSG       Mus8B_Ending_PSG1,	$D0, $05, $00, fTone_05
	smpsHeaderPSG       Mus8B_Ending_PSG2,	$DC, $05, $00, fTone_05
	smpsHeaderPSG       Mus8B_Ending_PSG3,	$00, $03, $00, fTone_04

; FM1 Data
Mus8B_Ending_FM1:
	smpsSetvoice        $03
	dc.b	nRst, $30, nRst, $30, nRst, $0C, nCs6, $15, nRst, $03, nCs6, $06
	dc.b	nRst, nD6, $0F, nRst, $03, nB5, $18, nRst, $06, nCs6, $06, nRst
	dc.b	nCs6, nRst, nCs6, nRst, nA5, nRst, nG5, $0F, nRst, $03, nB5, $18
	dc.b	nRst, $06, nRst, $0C, nCs6, $15, nRst, $03, nCs6, $06, nRst, nD6
	dc.b	$0F, nRst, $03, nB5, $18, nRst, $06, nCs6, $06, nRst, nCs6, nRst
	dc.b	nCs6, nRst, nA5, nRst, nG5, $0F, nRst, $03, nB5, $18, nRst, $06
	dc.b	nRst, $30, nRst, $30
	smpsAlterVol        $FB
	dc.b	nRst, $0C, nE6, $06, nRst, nB6, nE6, $06, nRst, $0C, nE6, $06
	dc.b	nRst, nB6, nE6, $06, nRst, $18
	smpsAlterVol        $05
	dc.b	nRst, $0C, nA3, nRst, nA3, nRst, $24
	smpsDetune          $02
	smpsAlterVol        $08
	dc.b	nA3, $0C, smpsNoAttack, $30, smpsNoAttack, $30
	smpsStop

; FM2 Data
Mus8B_Ending_FM2:
	smpsSetvoice        $01
	dc.b	nRst, $30, nRst, $30, nA3, $06, nRst, nA3, nRst, nE3, nRst, nE3
	dc.b	nRst, nG3, $12, nFs3, $0C, nG3, $06, nFs3, $0C, nA3, $06, nRst
	dc.b	nA3, nRst, nE3, nRst, nE3, nRst, nD4, $12, nCs4, $0C, nD4, $06
	dc.b	nCs4, $0C, nA3, $06, nRst, nA3, nRst, nE3, nRst, nE3, nRst, nG3
	dc.b	$12, nFs3, $0C, nG3, $06, nFs3, $0C, nA3, $06, nRst, nA3, nRst
	dc.b	nE3, nRst, nE3, nRst, nD4, $12, nCs4, $0C, nD4, $06, nCs4, $0C
	dc.b	nG3, $06, nRst, nE3, nRst, nF3, nRst, nFs3, nRst, nG3, $06, nG3
	dc.b	$06, nE3, $06, nRst, nF3, nRst, nG3, nRst, nE3, $06, nRst, nE3
	dc.b	nRst, nAb3, nRst, nAb3, nRst, nB3, $06, nRst, nB3, nRst, nD4, nRst
	dc.b	nD4, nRst, nRst, $0C, nA2, $12, nRst, $06, nA2, $0C, smpsNoAttack, $06
	dc.b	nAb3, $12, nA3, $06, nRst, $06
	smpsAlterVol        $FD
	dc.b	nA2, $0C, smpsNoAttack, $30, smpsNoAttack, $30
	smpsStop

; FM3 Data
Mus8B_Ending_FM3:
	smpsSetvoice        $02
	dc.b	nRst, $30, nRst, $30, nE6, $06, nRst, nE6, nRst, nCs6, nRst, nCs6
	dc.b	nRst, nD6, $12, nD6, $1E, nE6, $06, nRst, nE6, nRst, nCs6, nRst
	dc.b	nCs6, nRst, nG6, $12, nG6, $1E, nE6, $06, nRst, nE6, nRst, nCs6
	dc.b	nRst, nCs6, nRst, nD6, $12, nD6, $1E, nE6, $06, nRst, nE6, nRst
	dc.b	nCs6, nRst, nCs6, nRst, nG6, $12, nG6, $1E, nRst, $0C, nD6, $12
	dc.b	nRst, $06, nD6, nRst, nCs6, $12, nD6, $12, nCs6, $0C, nAb5, $18
	dc.b	nB5, $18, nD6, $18, nAb6, $18, nRst, $0C, nE6, $0C, nRst, $0C
	dc.b	nE6, $0C, smpsNoAttack, $06, nEb6, $12, nE6, $06, nRst, $06
	smpsAlterVol        $F8
	smpsSetvoice        $01
	smpsDetune          $03
	dc.b	nA2, $0C, smpsNoAttack, $30, smpsNoAttack, $30
	smpsStop

; FM4 Data
Mus8B_Ending_FM4:
	smpsSetvoice        $02
	dc.b	nRst, $30, nRst, $30, nCs6, $06, nRst, nCs6, nRst, nA5, nRst, nA5
	dc.b	nRst, nB5, $12, nB5, $06, smpsNoAttack, $18, nCs6, $06, nRst, nCs6, nRst
	dc.b	nA5, nRst, nA5, nRst, nD6, $12, nD6, $06, smpsNoAttack, $18, nCs6, $06
	dc.b	nRst, nCs6, nRst, nA5, nRst, nA5, nRst, nB5, $12, nB5, $06, smpsNoAttack
	dc.b	$18, nCs6, $06, nRst, nCs6, nRst, nA5, nRst, nA5, nRst, nD6, $12
	dc.b	nD6, $06, smpsNoAttack, $18
	smpsSetvoice        $00
	smpsDetune          $03
	smpsAlterVol        $08
	dc.b	nRst, $0C, nG6, $0C, nB6, $0C, nD7, $0C, nFs7, $12, nFs7, $0C
	dc.b	nG7, $06, nFs7, $0C, nAb7, $30, smpsNoAttack, $30, nA7, $0C, nRst, $0C
	dc.b	nA7, $0C, nRst, $0C, nRst, $06, nAb7, $12, nA7, $0C
	smpsAlterVol        $F0
	smpsSetvoice        $01
	smpsModSet          $00, $01, $06, $04
	dc.b	nA2, $0C, smpsNoAttack, $30, smpsNoAttack, $30
	smpsStop

; FM5 Data
Mus8B_Ending_FM5:
	smpsSetvoice        $03
	smpsDetune          $03
	smpsAlterVol        $F7
	dc.b	nRst, $30, nRst, $30, nRst, $0C, nCs6, $15, nRst, $03, nCs6, $06
	dc.b	nRst, nD6, $0F, nRst, $03, nB5, $18, nRst, $06, nCs6, $06, nRst
	dc.b	nCs6, nRst, nCs6, nRst, nA5, nRst, nG5, $0F, nRst, $03, nB5, $18
	dc.b	nRst, $06, nRst, $0C, nCs6, $15, nRst, $03, nCs6, $06, nRst, nD6
	dc.b	$0F, nRst, $03, nB5, $18, nRst, $06, nCs6, $06, nRst, nCs6, nRst
	dc.b	nCs6, nRst, nA5, nRst, nG5, $0F, nRst, $03, nB5, $18, nRst, $06
	smpsSetvoice        $00
	smpsAlterVol        $09
	smpsModSet          $00, $01, $06, $04
	dc.b	nRst, $0C, nG6, $0C, nB6, $0C, nD7, $0C, nFs7, $12, nFs7, $0C
	dc.b	nG7, $06, nFs7, $0C, nAb7, $30, smpsNoAttack, $30, nA7, $0C, nRst, $0C
	dc.b	nA7, $0C, nRst, $0C, nRst, $06, nAb7, $12, nA7, $0C, nRst, $0C
	dc.b	nRst, $30, nRst, $30
	smpsStop

; PSG1 Data
Mus8B_Ending_PSG1:
	dc.b	nRst, $30, $30, $30, $30, $30, $30, $30, $30, $30, $30, nRst
	dc.b	$0C, nB5, $12, nRst, $06, nB5, nRst, nA5, $12, nB5, $12, nA5
	dc.b	$0C, nE5, $18, nAb5, $18, nB5, $18, nD6, $18, nRst, $0C, nCs6
	dc.b	$0C, nRst, $0C, nCs6, $0C, smpsNoAttack, $06, nC6, $12, nCs6, $06, nRst
	dc.b	$12
	smpsStop

; PSG2 Data
Mus8B_Ending_PSG2:
	smpsDetune          $02
	dc.b	nRst, $30, $30, $30, $30, $30, $30, $30, $30, $30, $30, $30
	dc.b	$30, nRst, $0C, nE6, $06, nRst, nB6, nE6, $06, nRst, $0C, nE6
	dc.b	$06, nRst, nB6, nE6, $06, nRst, $18
	smpsStop

; PSG3 Data
Mus8B_Ending_PSG3:
	smpsPSGform         $E7

Mus8B_Ending_Loop04:
	smpsNoteFill        $03
	dc.b	nMaxPSG, $0C
	smpsNoteFill        $0C
	dc.b	$0C
	smpsNoteFill        $03
	dc.b	$0C
	smpsNoteFill        $0C
	dc.b	$0C
	smpsLoop            $00, $0F, Mus8B_Ending_Loop04
	smpsNoteFill        $03
	dc.b	nMaxPSG, $06
	smpsNoteFill        $0E
	dc.b	$12
	smpsNoteFill        $03
	dc.b	$0C
	smpsNoteFill        $0F
	dc.b	$0C
	smpsStop

; DAC Data
Mus8B_Ending_DAC:
	dc.b	dKick, $0C, dSnare, dKick, dSnare, dKick, $0C, dSnare, dKick, $06, nRst, $02
	dc.b	dSnare, dSnare, dSnare, $09, dSnare, $03

Mus8B_Ending_Loop00:
	dc.b	dKick, $0C, dSnare, dKick, dSnare, dKick, $0C, dSnare, dKick, dSnare, dKick, $0C
	dc.b	dSnare, dKick, dSnare, dKick, $0C, dSnare, dKick, $06, nRst, $02, dSnare, dSnare
	dc.b	dSnare, $09, dSnare, $03
	smpsLoop            $00, $03, Mus8B_Ending_Loop00
	dc.b	dKick, $0C, dSnare, dKick, dSnare, dKick, $06, dSnare, $12, dSnare, $0C, dKick
	smpsStop

Mus8B_Ending_Voices:
;	Voice $00
;	$3D
;	$01, $02, $02, $02, 	$14, $0E, $8C, $0E, 	$08, $05, $02, $05
;	$00, $00, $00, $00, 	$1F, $1F, $1F, $1F, 	$1A, $80, $80, $80
	smpsVcAlgorithm     $05
	smpsVcFeedback      $07
	smpsVcUnusedBits    $00
	smpsVcDetune        $00, $00, $00, $00
	smpsVcCoarseFreq    $02, $02, $02, $01
	smpsVcRateScale     $00, $02, $00, $00
	smpsVcAttackRate    $0E, $0C, $0E, $14
	smpsVcAmpMod        $00, $00, $00, $00
	smpsVcDecayRate1    $05, $02, $05, $08
	smpsVcDecayRate2    $00, $00, $00, $00
	smpsVcDecayLevel    $01, $01, $01, $01
	smpsVcReleaseRate   $0F, $0F, $0F, $0F
	smpsVcTotalLevel    $00, $00, $00, $1A

;	Voice $01
;	$20
;	$36, $35, $30, $31, 	$DF, $DF, $9F, $9F, 	$07, $06, $09, $06
;	$07, $06, $06, $08, 	$2F, $1F, $1F, $FF, 	$19, $37, $13, $80
	smpsVcAlgorithm     $00
	smpsVcFeedback      $04
	smpsVcUnusedBits    $00
	smpsVcDetune        $03, $03, $03, $03
	smpsVcCoarseFreq    $01, $00, $05, $06
	smpsVcRateScale     $02, $02, $03, $03
	smpsVcAttackRate    $1F, $1F, $1F, $1F
	smpsVcAmpMod        $00, $00, $00, $00
	smpsVcDecayRate1    $06, $09, $06, $07
	smpsVcDecayRate2    $08, $06, $06, $07
	smpsVcDecayLevel    $0F, $01, $01, $02
	smpsVcReleaseRate   $0F, $0F, $0F, $0F
	smpsVcTotalLevel    $00, $13, $37, $19

;	Voice $02
;	$3A
;	$01, $07, $01, $01, 	$8E, $8E, $8D, $53, 	$0E, $0E, $0E, $03
;	$00, $00, $00, $00, 	$1F, $FF, $1F, $0F, 	$18, $28, $27, $80
	smpsVcAlgorithm     $02
	smpsVcFeedback      $07
	smpsVcUnusedBits    $00
	smpsVcDetune        $00, $00, $00, $00
	smpsVcCoarseFreq    $01, $01, $07, $01
	smpsVcRateScale     $01, $02, $02, $02
	smpsVcAttackRate    $13, $0D, $0E, $0E
	smpsVcAmpMod        $00, $00, $00, $00
	smpsVcDecayRate1    $03, $0E, $0E, $0E
	smpsVcDecayRate2    $00, $00, $00, $00
	smpsVcDecayLevel    $00, $01, $0F, $01
	smpsVcReleaseRate   $0F, $0F, $0F, $0F
	smpsVcTotalLevel    $00, $27, $28, $18

;	Voice $03
;	$3A
;	$51, $08, $51, $02, 	$1E, $1E, $1E, $10, 	$1F, $1F, $1F, $0F
;	$00, $00, $00, $02, 	$0F, $0F, $0F, $1F, 	$18, $24, $22, $81
	smpsVcAlgorithm     $02
	smpsVcFeedback      $07
	smpsVcUnusedBits    $00
	smpsVcDetune        $00, $05, $00, $05
	smpsVcCoarseFreq    $02, $01, $08, $01
	smpsVcRateScale     $00, $00, $00, $00
	smpsVcAttackRate    $10, $1E, $1E, $1E
	smpsVcAmpMod        $00, $00, $00, $00
	smpsVcDecayRate1    $0F, $1F, $1F, $1F
	smpsVcDecayRate2    $02, $00, $00, $00
	smpsVcDecayLevel    $01, $00, $00, $00
	smpsVcReleaseRate   $0F, $0F, $0F, $0F
	smpsVcTotalLevel    $01, $22, $24, $18

